<?xml version="1.0" standalone="no"?>
<!DOCTYPE svg PUBLIC "-//W3C//DTD SVG 20010904//EN"
 "http://www.w3.org/TR/2001/REC-SVG-20010904/DTD/svg10.dtd">
<svg version="1.0" xmlns="http://www.w3.org/2000/svg"
 width="260.000000pt" height="260.000000pt" viewBox="0 0 260.000000 260.000000"
 preserveAspectRatio="xMidYMid meet">
<metadata>
Created by potrace 1.11, written by Peter Selinger 2001-2013
</metadata>
<g transform="translate(0.000000,260.000000) scale(0.100000,-0.100000)"
fill="#000000" stroke="none">
<path d="M530 2120 l0 -119 81 -3 81 -3 214 -395 214 -395 0 -232 0 -233 -85
0 -85 0 0 -120 0 -120 355 0 355 0 0 120 0 120 -85 0 -85 0 0 234 0 234 213
393 212 394 83 3 82 3 0 119 0 120 -218 0 -217 0 -170 -340 -170 -340 -170
340 -170 340 -217 0 -218 0 0 -120z"/>
</g>
</svg>
