<?xml version="1.0" standalone="no"?>
<!DOCTYPE svg PUBLIC "-//W3C//DTD SVG 1.1//EN" "http://www.w3.org/Graphics/SVG/1.1/DTD/svg11.dtd" >
<svg xmlns="http://www.w3.org/2000/svg">
<metadata></metadata>
<defs>
<font id="fs_lolaregular" horiz-adv-x="1142" >
<font-face units-per-em="2048" ascent="1536" descent="-512" />
<missing-glyph horiz-adv-x="477" />
<glyph unicode="&#xfb01;" horiz-adv-x="1304" d="M18 801v192h154v90q0 172 72 250q83 92 262 92q118 0 211 -28l-25 -176q-59 18 -127 18q-69 0 -96 -37q-25 -34 -25 -104v-105h672v-764q0 -61 49 -61q18 0 41.5 8.5t36.5 18.5l-8 -156q-74 -51 -180 -51q-123 0 -174 69q-37 51 -37 160v584h-400v-801h-272v801h-154z M821 1264q0 63 44.5 107t107.5 44t106 -44t43 -107q0 -64 -42 -108t-105 -44t-108.5 44.5t-45.5 107.5z" />
<glyph unicode="&#xfb02;" horiz-adv-x="1343" d="M18 801v192h156v90q0 88 16.5 148t57.5 104q84 90 266 90q118 0 221 -36v-179q-82 29 -166 29q-69 0 -96 -37q-27 -34 -27 -108v-101h242v-192h-242v-801h-272v801h-156zM862 217v1184h273v-1172q0 -61 49 -61q18 0 41.5 8.5t36.5 18.5l-9 -156q-74 -51 -180 -51 q-123 0 -174 69q-37 51 -37 160z" />
<glyph horiz-adv-x="0" />
<glyph horiz-adv-x="682" />
<glyph unicode=" "  horiz-adv-x="477" />
<glyph unicode="&#x09;" horiz-adv-x="477" />
<glyph unicode="&#xa0;" horiz-adv-x="477" />
<glyph unicode="!" horiz-adv-x="593" d="M152 1184q0 63 41 99t104 36t104 -36t41 -99q0 -4 -1 -11.5t-1 -11.5l-92 -762h-102l-92 762q0 4 -1 11.5t-1 11.5zM160 123q0 57 40 97t97 40t98 -40t41 -97t-41 -98t-98 -41t-97 41t-40 98z" />
<glyph unicode="&#x22;" horiz-adv-x="712" d="M88 1217q0 50 31 76t82 26q49 0 80.5 -26.5t31.5 -75.5q0 -23 -2 -33l-65 -336h-88l-66 336q-4 20 -4 33zM401 1217q0 50 30 76t81 26q50 0 81.5 -26.5t31.5 -75.5q0 -23 -2 -33l-66 -336h-88l-66 336q-2 10 -2 33z" />
<glyph unicode="#" d="M66 379v180h231v182h-231v179h231v376h184v-376h185v376h184v-376h229v-179h-229v-182h229v-180h-229v-379h-184v379h-185v-379h-184v379h-231zM481 559h185v182h-185v-182z" />
<glyph unicode="$" d="M115 926q0 160 101 262t290 125v200h137v-194q151 -6 293 -55l-10 -217q-146 57 -283 63v-334q47 -15 78 -25.5t75.5 -30t73.5 -39t62 -50.5t52 -66t31.5 -83t12.5 -105q0 -173 -104 -270.5t-281 -120.5v-207h-137v201q-210 6 -379 81l12 236q80 -44 181.5 -74t185.5 -33 v338q-39 12 -61.5 19t-60 21.5t-60.5 26t-54.5 31t-51 39t-41.5 47.5t-34 59t-20 70.5t-8 84.5zM389 961q0 -49 29.5 -80.5t87.5 -57.5v273q-117 -34 -117 -135zM643 207q109 38 109 135q0 48 -28 79.5t-81 57.5v-272z" />
<glyph unicode="%" horiz-adv-x="1761" d="M125 936q0 180 80 281.5t231 101.5q152 0 233 -101.5t81 -281.5t-81 -281.5t-233 -101.5q-151 0 -231 101.5t-80 281.5zM317 936q0 -127 28 -180.5t91 -53.5t91 53.5t28 180.5t-28 180t-91 53t-91 -53t-28 -180zM561 -18l436 1337h209l-436 -1337h-209zM1014 365 q0 180 80.5 281.5t232.5 101.5q151 0 231 -101.5t80 -281.5t-80 -281.5t-231 -101.5q-152 0 -232.5 101.5t-80.5 281.5zM1208 365q0 -127 28 -180.5t91 -53.5t91 53.5t28 180.5t-28 180t-91 53t-91 -53t-28 -180z" />
<glyph unicode="&#x26;" horiz-adv-x="1421" d="M98 375q0 123 63.5 216.5t186.5 133.5q-71 33 -113 101t-42 159q0 159 119.5 246.5t301.5 87.5q170 0 308 -57l-11 -191q-117 57 -245 57q-98 0 -150.5 -42t-52.5 -119q0 -87 65 -128.5t179 -41.5h583v-179h-180v-331q0 -61 21 -88t71 -27q65 0 150 47l-17 -174 q-95 -65 -219 -65q-86 0 -146.5 39.5t-80.5 107.5q-50 -68 -148.5 -107.5t-210.5 -39.5q-194 0 -313 108t-119 287zM383 395q0 -96 61 -154.5t158 -58.5q138 0 205 90q49 67 49 181v165h-209q-127 0 -196 -57q-68 -59 -68 -166z" />
<glyph unicode="'" horiz-adv-x="401" d="M88 1217q0 50 31 76t82 26q49 0 80.5 -26.5t31.5 -75.5q0 -23 -2 -33l-65 -336h-88l-66 336q-4 20 -4 33z" />
<glyph unicode="(" horiz-adv-x="638" d="M127 506q0 210 55 390.5t163.5 314t258.5 192.5l39 -72q-130 -93 -189 -290t-59 -535t59 -536.5t189 -291.5l-39 -71q-224 89 -350.5 334t-126.5 565z" />
<glyph unicode=")" horiz-adv-x="638" d="M-4 -322q130 93 189 291.5t59 536.5t-59 535t-189 290l39 72q150 -59 258.5 -192.5t163.5 -314t55 -390.5q0 -320 -126.5 -565t-350.5 -334z" />
<glyph unicode="*" horiz-adv-x="944" d="M121 784q0 31 22 51t52 29l202 68l-202 65q-30 9 -52 29t-22 51q0 34 26 64t60 30q33 0 69 -32l158 -146l-45 211q-2 6 -2 33q0 39 22.5 60.5t61.5 21.5q38 0 62 -21.5t24 -60.5q0 -13 -4 -33l-47 -211l160 146q36 32 71 32q34 0 60 -30t26 -64q0 -31 -22.5 -51 t-52.5 -29l-203 -65l203 -68q30 -9 52.5 -29t22.5 -51q0 -34 -26 -64t-60 -30t-71 33l-160 145l47 -211q4 -20 4 -32q0 -39 -24 -60.5t-62 -21.5q-39 0 -61.5 21.5t-22.5 60.5q0 22 2 32l45 211l-158 -145q-37 -33 -69 -33q-34 0 -60 30t-26 64z" />
<glyph unicode="+" horiz-adv-x="1095" d="M180 563v189h273v266h194v-266h271v-189h-271v-266h-194v266h-273z" />
<glyph unicode="," horiz-adv-x="512" d="M74 -223q57 40 99 101t50 108q-48 13 -79 47t-31 84q0 56 38 94.5t99 38.5q69 0 109 -44t40 -118q0 -110 -72 -223.5t-182 -167.5z" />
<glyph unicode="-" horiz-adv-x="782" d="M125 395v203h534v-203h-534z" />
<glyph unicode="." horiz-adv-x="505" d="M115 123q0 57 41 97t98 40t97 -40t40 -97t-40 -98t-97 -41t-98 41t-41 98z" />
<glyph unicode="/" horiz-adv-x="671" d="M6 -18l428 1337h232l-428 -1337h-232z" />
<glyph unicode="0" d="M86 647q0 326 121.5 499t363.5 173q243 0 364.5 -173t121.5 -499t-120.5 -496.5t-363.5 -170.5t-365 171t-122 496zM379 647q0 -242 43.5 -349.5t150.5 -107.5q106 0 148.5 107t42.5 350q0 242 -43.5 350.5t-149.5 108.5t-149 -108t-43 -351z" />
<glyph unicode="1" d="M215 1077l365 219h176v-1114h200v-182h-677v182h200v828l-168 -97z" />
<glyph unicode="2" d="M135 995q87 324 463 324q200 0 313 -107q107 -101 107 -266q0 -45 -9.5 -86.5t-22.5 -73t-40 -66t-47 -56t-59.5 -53.5t-62 -48t-68.5 -49q-45 -31 -70 -49.5t-66.5 -53.5t-65.5 -63t-46.5 -67t-30.5 -78h596l-18 -203h-861v63q0 103 23.5 187t70 151.5t100 118 t130.5 105.5q47 34 66 48t55 42t51 43t37.5 40t31 44.5t16 44.5t7.5 51q0 77 -43.5 123.5t-124.5 46.5q-140 0 -192 -168z" />
<glyph unicode="3" d="M117 1004q39 154 153.5 234.5t284.5 80.5q204 0 311 -94.5t107 -243.5q0 -100 -45.5 -170.5t-128.5 -103.5q231 -69 231 -318q0 -190 -130 -299.5t-363 -109.5q-212 0 -392 81l15 218q73 -41 165.5 -69t174.5 -28q122 0 185 55.5t63 153.5q0 187 -267 187v172 q102 5 161.5 53.5t59.5 146.5q0 72 -43 116t-116 44q-138 0 -193 -160z" />
<glyph unicode="4" d="M70 387l479 932l217 -119l-387 -747h297v239h256v-239h143v-203h-143v-250h-256v250h-547z" />
<glyph unicode="5" d="M172 59l14 211q148 -90 306 -90q125 0 190.5 61.5t65.5 174.5t-56 166q-36 33 -91.5 46t-160.5 13h-237v655h712v-200h-495v-265h96q144 0 238.5 -24t156.5 -78q115 -100 115 -303q0 -207 -127 -326.5t-364 -119.5q-205 0 -363 79z" />
<glyph unicode="6" d="M109 580q0 218 67.5 384.5t197.5 260.5t306 94q137 0 248 -43l-4 -184q-113 41 -215 41q-247 0 -303 -334q104 65 253 65q197 0 299.5 -108t102.5 -310q0 -132 -51.5 -236t-159 -167t-256.5 -63q-125 0 -219 44.5t-151.5 125.5t-86 189t-28.5 241zM387 539 q3 -365 211 -365q88 0 142.5 71t54.5 195q0 244 -201 244q-110 0 -205 -66q-2 -25 -2 -79z" />
<glyph unicode="7" d="M147 1096v200h822l53 -133l-471 -1163h-285l475 1096h-594z" />
<glyph unicode="8" d="M123 352q0 98 53.5 183t155.5 139q-164 110 -164 299q0 156 112.5 251t301.5 95q188 0 296.5 -87.5t108.5 -234.5q0 -93 -53 -170t-137 -122q55 -26 96 -54t78 -67.5t56.5 -93t19.5 -119.5q0 -180 -119.5 -285.5t-356.5 -105.5q-210 0 -329 98t-119 274zM379 367 q0 -93 55.5 -144t147.5 -53q93 -2 147.5 45.5t54.5 134.5q0 35 -14 64.5t-37.5 52t-57 42t-70 36t-78.5 34.5q-9 3 -13 5q-64 -33 -99.5 -91.5t-35.5 -125.5zM418 989q0 -71 49.5 -117.5t142.5 -87.5q66 32 104 84.5t38 112.5q0 79 -46 120.5t-122 41.5t-121 -42.5 t-45 -111.5z" />
<glyph unicode="9" d="M82 852q0 98 30.5 182.5t87.5 148t147 100t202 36.5q125 0 219 -44.5t151.5 -125.5t86 -189t28.5 -241q0 -218 -67.5 -384.5t-197.5 -260.5t-306 -94q-137 0 -248 43l4 184q113 -41 215 -41q247 0 303 334q-106 -66 -254 -66q-197 0 -299 108t-102 310zM348 858 q0 -244 201 -244q110 0 205 66q2 25 2 80q-3 364 -211 364q-88 0 -142.5 -71t-54.5 -195z" />
<glyph unicode=":" horiz-adv-x="505" d="M115 123q0 57 41 97t98 40t97 -40t40 -97t-40 -98t-97 -41t-98 41t-41 98zM115 692q0 57 41 98t98 41t97 -41t40 -98t-40 -97t-97 -40t-98 40t-41 97z" />
<glyph unicode=";" horiz-adv-x="512" d="M74 -223q57 40 99 101t50 108q-48 13 -79 47t-31 84q0 56 38 94.5t99 38.5q69 0 109 -44t40 -118q0 -110 -72 -223.5t-182 -167.5zM119 692q0 57 40 98t97 41t98 -41t41 -98t-41 -97t-98 -40t-97 40t-40 97z" />
<glyph unicode="&#x3c;" horiz-adv-x="1095" d="M176 561v189l746 292v-206l-488 -179l488 -178v-207z" />
<glyph unicode="=" horiz-adv-x="1095" d="M180 348v191h738v-191h-738zM180 774v191h738v-191h-738z" />
<glyph unicode="&#x3e;" horiz-adv-x="1095" d="M176 272v207l488 178l-488 179v206l746 -292v-189z" />
<glyph unicode="?" horiz-adv-x="1026" d="M63 993q32 155 146.5 240.5t286.5 85.5q188 0 301.5 -99t113.5 -266q0 -149 -79 -244.5t-236 -125.5l-43 -9l-25 -176h-125l-22 291l82 15q178 29 178 219q0 81 -42.5 130.5t-121.5 49.5q-131 0 -178 -158zM330 123q0 57 40 97t97 40t98 -40t41 -97t-41 -98t-98 -41 t-97 41t-40 98z" />
<glyph unicode="@" horiz-adv-x="1576" d="M96 651q0 153 54 280t148 211.5t221 130.5t274 46q202 0 358.5 -76.5t242 -212.5t85.5 -309q0 -220 -98 -340.5t-267 -120.5q-74 0 -126.5 26t-69.5 72q-31 -41 -84.5 -64.5t-118.5 -23.5q-119 0 -188.5 60.5t-69.5 179.5q0 108 72 174t206 66q75 0 148 -21v43 q0 55 -36.5 84t-103.5 29q-118 0 -227 -56v140q115 51 256 51q177 0 254 -74q66 -63 66 -186v-273q0 -37 15 -55t50 -18q60 0 91.5 73t31.5 211q0 218 -130.5 344.5t-352.5 126.5q-239 0 -370.5 -139.5t-131.5 -380.5q0 -258 142 -396t409 -138q302 0 551 116l-8 -125 q-99 -52 -259 -89t-315 -37q-330 0 -524.5 177t-194.5 494zM666 518q0 -52 28 -82t78 -30q48 0 79.5 30t31.5 88v99q-47 14 -97 14q-58 0 -89 -31.5t-31 -87.5z" />
<glyph unicode="A" horiz-adv-x="1269" d="M41 0l358 1096h-120v200h505l467 -1296h-295l-88 262h-467l-79 -262h-281zM459 455h344l-141 422q-34 99 -39 159h-2q-3 -52 -33 -157z" />
<glyph unicode="B" horiz-adv-x="1243" d="M37 1096v200h586q135 0 220.5 -21t141.5 -71q98 -88 98 -233q0 -96 -46 -167t-124 -106q248 -60 248 -319q0 -232 -182 -322q-111 -57 -342 -57h-475v1096h-125zM446 203h164q133 0 191.5 42.5t58.5 147.5q0 96 -49 139q-59 50 -199 50h-166v-379zM446 750h136 q124 0 172 45q43 40 43 133q0 83 -47 125q-46 43 -177 43h-127v-346z" />
<glyph unicode="C" horiz-adv-x="1183" d="M72 655q0 141 34 259.5t101.5 210t178 143t253.5 51.5q191 0 314 -99t151 -268l-289 -53q-22 100 -65 151.5t-121 51.5q-124 0 -189 -116.5t-65 -313.5q0 -473 334 -473q91 0 192.5 33.5t181.5 84.5l-16 -223q-72 -49 -185.5 -81.5t-232.5 -32.5q-151 0 -263.5 50.5 t-180 142.5t-100.5 212.5t-33 269.5z" />
<glyph unicode="D" horiz-adv-x="1318" d="M37 1096v200h514q322 0 479 -104q110 -74 163.5 -208t53.5 -341q0 -453 -319 -584q-147 -59 -369 -59h-397v1096h-125zM446 201h132q154 0 237 59q71 51 100 148t29 249q0 145 -29 235.5t-94 139.5q-87 64 -270 64h-105v-895z" />
<glyph unicode="E" horiz-adv-x="1093" d="M145 0v1296h820v-200h-535v-338h434v-199h-434v-356h582l-19 -203h-848z" />
<glyph unicode="F" horiz-adv-x="1034" d="M145 0v1296h820v-200h-535v-338h436v-199h-436v-559h-285z" />
<glyph unicode="G" horiz-adv-x="1290" d="M72 649q0 321 156.5 495.5t430.5 174.5q208 0 335.5 -99.5t162.5 -273.5l-295 -49q-23 98 -74 151.5t-141 53.5q-130 0 -201 -120.5t-71 -317.5q0 -467 317 -467q115 0 197 55v207h-156v170h436v-629h-163l-45 74q-137 -94 -332 -94q-115 0 -208 32.5t-157.5 91.5 t-108 142.5t-63.5 184t-20 218.5z" />
<glyph unicode="H" horiz-adv-x="1320" d="M145 0v1296h285v-534h461v534h285v-1296h-285v537h-461v-537h-285z" />
<glyph unicode="I" horiz-adv-x="784" d="M117 0v158h131v977h-131v161h551v-161h-136v-977h136v-158h-551z" />
<glyph unicode="J" horiz-adv-x="929" d="M94 29l12 204q37 -17 100 -31t113 -14q98 0 138 43q43 43 43 154v711h-332v200h616v-882q0 -106 -11.5 -170.5t-43.5 -114.5q-95 -149 -350 -149q-157 0 -285 49z" />
<glyph unicode="K" horiz-adv-x="1261" d="M145 0v1296h285v-536h164l276 536h287l-336 -632l223 -406q23 -41 45.5 -58.5t57.5 -17.5q21 0 46 8t38 17l-17 -180q-27 -18 -77.5 -30.5t-96.5 -12.5q-91 0 -152 45t-120 153l-190 348h-148v-530h-285z" />
<glyph unicode="L" horiz-adv-x="1032" d="M145 0v1296h285v-1093h557l-16 -203h-826z" />
<glyph unicode="M" horiz-adv-x="1615" d="M145 0v1296h265l354 -774q47 -100 55 -162h2q2 22 17 73.5t32 88.5l334 774h266v-1296h-241v848q-9 -61 -55 -172l-293 -676h-138l-305 674q-37 79 -53 176v-850h-240z" />
<glyph unicode="N" horiz-adv-x="1335" d="M145 0v1296h183l557 -721q51 -63 65 -110v831h240v-1296h-189l-555 721q-47 61 -61 110v-831h-240z" />
<glyph unicode="O" horiz-adv-x="1282" d="M72 649q0 203 62 352t191.5 233.5t315.5 84.5t315.5 -84.5t191.5 -233.5t62 -352t-62 -351.5t-191 -233t-316 -84.5t-316 84.5t-191 233t-62 351.5zM375 649q0 -450 266 -450t266 450q0 451 -266 451t-266 -451z" />
<glyph unicode="P" horiz-adv-x="1216" d="M37 1096v200h530q140 0 239.5 -15.5t172.5 -55.5q182 -100 182 -361q0 -269 -184 -375q-127 -75 -361 -75h-170v-414h-284v1096h-125zM446 608h132q149 0 219.5 54t70.5 196q0 136 -86 193q-39 26 -85.5 35.5t-123.5 9.5h-127v-488z" />
<glyph unicode="Q" horiz-adv-x="1282" d="M72 649q0 203 62 352t191.5 233.5t315.5 84.5t315.5 -84.5t191.5 -233.5t62 -352q0 -284 -121.5 -459t-357.5 -204q-8 -21 -8 -54q0 -45 27.5 -69.5t74.5 -24.5q95 0 240 82l-14 -176q-141 -111 -322 -111q-120 0 -191 64t-71 180q0 57 27 117q-208 45 -315 217t-107 438 zM375 649q0 -450 266 -450t266 450q0 451 -266 451t-266 -451z" />
<glyph unicode="R" horiz-adv-x="1292" d="M39 1096v200h569q261 0 387 -79q166 -107 166 -324q0 -153 -67.5 -253t-192.5 -142l148 -252q20 -35 41.5 -49.5t52.5 -14.5q44 0 96 31l-16 -186q-29 -18 -76.5 -30.5t-91.5 -12.5q-102 0 -160.5 41.5t-116.5 138.5l-176 297h-153v-461h-285v1096h-125zM449 643h178 q126 0 182.5 57t56.5 174q0 114 -55 166q-61 56 -225 56h-137v-453z" />
<glyph unicode="S" horiz-adv-x="1116" d="M123 926q0 181 128.5 287t362.5 106q167 0 330 -55l-10 -217q-163 63 -301 63q-114 0 -175 -39.5t-61 -109.5q0 -44 27.5 -77t72.5 -52t102.5 -39.5t117 -37.5t117 -48.5t102.5 -71t72.5 -106t27.5 -152.5q0 -101 -38 -178t-105.5 -124.5t-155.5 -71t-194 -23.5 q-219 0 -408 81l12 236q83 -47 190 -77t193 -30q103 0 166.5 38.5t63.5 113.5q0 41 -22 72.5t-58.5 51.5t-84.5 36.5t-101 33t-105.5 36t-100.5 49.5t-84.5 69t-58.5 99.5t-22 136.5z" />
<glyph unicode="T" horiz-adv-x="1107" d="M41 1096v200h1026v-200h-371v-1096h-284v1096h-371z" />
<glyph unicode="U" horiz-adv-x="1300" d="M143 469v827h287v-815q0 -149 47 -209q55 -71 176 -71q117 0 174 67q52 64 52 211v817h278v-817q0 -224 -92 -340q-125 -159 -418 -159q-274 0 -399 137q-58 64 -81.5 145t-23.5 207z" />
<glyph unicode="V" horiz-adv-x="1173" d="M20 1296h302l245 -835q25 -83 25 -156h2q3 77 27 156l251 835h283l-426 -1296h-297z" />
<glyph unicode="W" horiz-adv-x="1751" d="M20 1296h285l246 -811q29 -104 29 -149h2q3 64 26 145l172 541l-82 274h269l231 -807q25 -90 25 -153h4q3 65 24 156l211 804h271l-390 -1296h-260l-194 657l-205 -657h-254z" />
<glyph unicode="X" horiz-adv-x="1236" d="M39 0l401 674l-385 622h322l254 -424l227 424h289l-383 -645l237 -393q25 -41 47 -57.5t54 -16.5q43 0 86 31l-12 -184q-27 -20 -73.5 -33.5t-92.5 -13.5q-86 0 -142.5 39t-109.5 129l-180 303l-244 -455h-295z" />
<glyph unicode="Y" horiz-adv-x="1202" d="M6 1296h318l247 -485q47 -93 52 -143h2q5 57 47 139l239 489h279l-451 -850v-446h-284v451z" />
<glyph unicode="Z" horiz-adv-x="1105" d="M104 0v158l566 938h-543v200h885v-157l-566 -936h594l-18 -203h-918z" />
<glyph unicode="[" horiz-adv-x="653" d="M162 -379v1780h473v-191h-217v-1398h217v-191h-473z" />
<glyph unicode="\" horiz-adv-x="671" d="M6 1319h232l428 -1337h-232z" />
<glyph unicode="]" horiz-adv-x="653" d="M18 -188h218v1398h-218v191h474v-1780h-474v191z" />
<glyph unicode="^" horiz-adv-x="1095" d="M156 780l286 496q13 23 26.5 33t37.5 10h90q24 0 36.5 -9.5t26.5 -35.5l283 -494h-194l-197 355l-199 -355h-196z" />
<glyph unicode="_" horiz-adv-x="1024" d="M-10 -98h1044v-148h-1044v148z" />
<glyph unicode="`" horiz-adv-x="628" d="M113 1278q0 38 26.5 61t75.5 23q126 0 297 -209l-25 -74q-143 113 -262 113q-25 0 -75 -10q-37 51 -37 96z" />
<glyph unicode="a" horiz-adv-x="1110" d="M86 311q0 162 105 249t284 87q107 0 201 -33v27q0 97 -39 141q-48 54 -166 54q-152 0 -297 -74v184q144 66 340 66q235 0 346 -105q88 -82 88 -254v-424q0 -32 11 -46.5t36 -14.5q18 0 42.5 8.5t37.5 18.5l-10 -156q-72 -51 -182 -51q-65 0 -112 26.5t-64 77.5 q-39 -52 -111.5 -81t-157.5 -29q-161 0 -256.5 86t-95.5 243zM360 324q0 -80 42 -123t114 -43q75 0 119 47q41 44 41 125v137q-65 25 -141 25q-86 0 -130.5 -46.5t-44.5 -121.5z" />
<glyph unicode="b" horiz-adv-x="1132" d="M27 1208v193h391v-490q98 101 258 101q195 0 295 -132t100 -370q0 -257 -123 -389q-128 -139 -405 -139q-208 0 -398 61v1165h-118zM418 180q17 -7 55.5 -13.5t63.5 -6.5q109 0 168 53q90 78 90 291q0 156 -48 231.5t-147 75.5q-90 0 -137 -53q-45 -48 -45 -156v-422z " />
<glyph unicode="c" horiz-adv-x="995" d="M61 492q0 240 124 380t343 140q164 0 275 -82q101 -77 133 -236l-248 -51q-20 94 -55 139t-103 45q-95 0 -143.5 -86.5t-48.5 -230.5q0 -170 63.5 -254t196.5 -84q75 0 157 26t148 70l-10 -192q-64 -42 -158 -68t-190 -26q-230 0 -357 132.5t-127 377.5z" />
<glyph unicode="d" horiz-adv-x="1155" d="M61 453q0 255 144.5 407t396.5 152q51 0 115 -11v207h-119v193h391v-1172q0 -32 11 -46.5t36 -14.5q18 0 42.5 8.5t37.5 18.5l-10 -154q-77 -53 -184 -53q-63 0 -111.5 26t-69.5 80q-45 -53 -115.5 -82.5t-154.5 -29.5q-192 0 -301 124t-109 347zM338 465 q0 -130 50 -208.5t151 -78.5q92 0 137 58q41 52 41 155v438q-42 11 -94 11q-136 0 -210.5 -98t-74.5 -277z" />
<glyph unicode="e" horiz-adv-x="1056" d="M61 492q0 243 128.5 381.5t340.5 138.5q203 0 327 -125t124 -332q0 -80 -27.5 -113.5t-95.5 -33.5h-516q13 -118 82.5 -178t185.5 -60q85 0 172.5 27.5t153.5 72.5l-10 -186q-68 -49 -167.5 -75.5t-203.5 -26.5q-235 0 -364.5 137.5t-129.5 372.5zM338 563h362 q19 0 19 21q0 116 -50 179.5t-139 63.5q-82 0 -134 -66t-58 -198z" />
<glyph unicode="f" horiz-adv-x="735" d="M18 801v192h156v90q0 88 16.5 148t57.5 104q84 90 266 90q118 0 221 -36v-179q-82 29 -166 29q-69 0 -96 -37q-27 -34 -27 -108v-101h242v-192h-242v-801h-272v801h-156z" />
<glyph unicode="g" horiz-adv-x="1128" d="M66 455q0 261 156.5 409t418.5 148q87 0 186 -17t172 -43v-915q0 -127 -21.5 -205t-72.5 -137q-111 -129 -366 -129q-99 0 -204 24t-177 62l16 201q71 -43 158 -68t168 -25q118 0 172 54q55 55 55 196v84q-37 -43 -102.5 -70.5t-145.5 -27.5q-196 0 -304.5 120.5 t-108.5 338.5zM342 473q0 -140 53 -213.5t150 -73.5q87 0 137 56q45 48 45 149v426q-40 14 -92 14q-136 0 -214.5 -96t-78.5 -262z" />
<glyph unicode="h" horiz-adv-x="1150" d="M141 0v1401h273v-481q95 92 256 92q178 0 272 -97q86 -93 86 -266v-649h-272v606q0 101 -33 146q-42 55 -129 55q-89 0 -139 -64q-41 -53 -41 -174v-569h-273z" />
<glyph unicode="i" horiz-adv-x="628" d="M49 801v192h391v-764q0 -61 49 -61q18 0 41.5 8.5t36.5 18.5l-8 -156q-74 -51 -180 -51q-123 0 -174 69q-37 51 -37 160v584h-119zM145 1264q0 63 44.5 107t107.5 44t106 -44t43 -107q0 -64 -42 -108t-105 -44t-108.5 44.5t-45.5 107.5z" />
<glyph unicode="j" horiz-adv-x="612" d="M-72 -387l11 188q67 -28 145 -28q69 0 96 38t27 132v858h-125v192h397v-1009q0 -111 -12.5 -178t-50.5 -117q-84 -109 -283 -109q-120 0 -205 33zM184 1264q0 63 44.5 107t107.5 44t106 -44t43 -107q0 -64 -42 -108t-105 -44t-108.5 44.5t-45.5 107.5z" />
<glyph unicode="k" horiz-adv-x="1118" d="M27 1208v193h391v-758h108l203 350h270l-258 -442l197 -326q19 -31 37 -44t45 -13q41 0 80 27l-8 -162q-58 -45 -160 -45q-83 0 -136 34t-98 111l-184 309h-96v-442h-273v1208h-118z" />
<glyph unicode="l" horiz-adv-x="628" d="M29 1208v193h391v-1172q0 -61 49 -61q18 0 41.5 8.5t36.5 18.5l-8 -156q-74 -51 -181 -51q-123 0 -174 69q-37 51 -37 160v991h-118z" />
<glyph unicode="m" horiz-adv-x="1755" d="M37 801v192h280l50 -127q45 67 125 106.5t188 39.5q212 0 299 -135q47 61 124.5 98t178.5 37q100 0 176 -32.5t117 -92.5q57 -80 57 -240v-647h-272v606q0 55 -5.5 87t-25.5 59q-42 55 -125 55q-84 0 -133 -62q-41 -54 -41 -172v-573h-272v606q0 55 -5.5 87t-25.5 59 q-42 55 -125 55q-84 0 -133 -62q-41 -54 -41 -172v-573h-272v801h-119z" />
<glyph unicode="n" horiz-adv-x="1165" d="M37 801v192h280l50 -127q110 146 317 146q178 0 272 -97q86 -93 86 -266v-649h-272v606q0 101 -33 146q-42 55 -129 55q-89 0 -139 -64q-41 -53 -41 -174v-569h-272v801h-119z" />
<glyph unicode="o" horiz-adv-x="1089" d="M61 496q0 243 126 379.5t358 136.5t357.5 -136.5t125.5 -379.5t-125.5 -378.5t-357.5 -135.5t-358 135.5t-126 378.5zM338 496q0 -174 53.5 -251t153.5 -77t153.5 77t53.5 251t-53.5 251.5t-153.5 77.5t-153.5 -77.5t-53.5 -251.5z" />
<glyph unicode="p" horiz-adv-x="1144" d="M37 801v192h285l53 -129q50 71 128.5 109.5t176.5 38.5q203 0 303 -133t100 -369q0 -294 -157 -424q-125 -104 -340 -104q-90 0 -158 14v-404h-272v1209h-119zM428 174q66 -16 133 -16q136 0 191 87t55 257q0 309 -199 309q-94 0 -141 -68q-39 -52 -39 -170v-399z" />
<glyph unicode="q" horiz-adv-x="1120" d="M61 444q0 261 146.5 414.5t410.5 153.5q91 0 194 -16.5t181 -41.5v-1044q0 -103 11 -162t43 -121l-263 -53q-63 95 -63 268v244q-37 -45 -105 -74.5t-151 -29.5q-190 0 -297 124.5t-107 337.5zM338 469q0 -132 49 -211.5t150 -79.5q88 0 135 53q49 52 49 148v436 q-44 14 -107 14q-133 0 -204.5 -96.5t-71.5 -263.5z" />
<glyph unicode="r" horiz-adv-x="747" d="M37 801v192h285l49 -139q37 74 107.5 116t156.5 42q36 0 63 -6v-215q-30 6 -80 6q-94 0 -141 -56q-49 -59 -49 -194v-547h-272v801h-119z" />
<glyph unicode="s" horiz-adv-x="937" d="M102 698q0 146 113 230t297 84q164 0 279 -43v-193q-123 51 -261 51q-79 0 -127.5 -27t-48.5 -75q0 -32 28.5 -55t73.5 -38t100 -30t110 -37.5t100 -54.5t73.5 -87t28.5 -128q0 -151 -111.5 -232t-289.5 -81q-212 0 -361 67l17 205q63 -38 156.5 -62t169.5 -24 q167 0 167 98q0 35 -28.5 59t-73.5 39t-100 29t-110 36t-100 53t-73.5 86t-28.5 130z" />
<glyph unicode="t" horiz-adv-x="792" d="M27 801v192h155v246l273 68v-314h229v-192h-229v-479q0 -74 24 -110t84 -36q82 0 168 53l-6 -182q-43 -29 -111 -47t-137 -18q-149 0 -225 79q-38 41 -54 100t-16 156v484h-155z" />
<glyph unicode="u" horiz-adv-x="1175" d="M123 344v649h272v-606q0 -100 33 -145q43 -56 129 -56q89 0 139 64q41 53 41 174v569h273v-764q0 -61 49 -61q18 0 41.5 8.5t36.5 18.5l-11 -154q-77 -53 -182 -53q-62 0 -109.5 26t-66.5 76q-105 -108 -287 -108q-179 0 -272 96q-86 93 -86 266z" />
<glyph unicode="v" horiz-adv-x="993" d="M10 993h275l174 -553q35 -116 39 -174q9 82 41 174l192 553h252l-375 -993h-248z" />
<glyph unicode="w" horiz-adv-x="1431" d="M10 993h269l167 -522q34 -108 39 -170q6 78 39 172l105 315l-66 205h248l154 -518q32 -111 34 -178q5 65 37 178l156 518h229l-327 -993h-213l-158 492l-162 -492h-207z" />
<glyph unicode="x" horiz-adv-x="989" d="M20 0l320 518l-307 475h282l201 -311l180 311h242l-301 -493l176 -277q18 -28 37 -40.5t47 -12.5q42 0 82 25l-8 -162q-63 -45 -152 -45q-73 0 -126 34t-109 121l-119 189l-197 -332h-248z" />
<glyph unicode="y" horiz-adv-x="1140" d="M123 344v649h272v-606q0 -100 33 -145q43 -56 129 -56q89 0 139 64q41 53 41 174v569h273v-956q0 -127 -22 -205t-73 -137q-111 -129 -366 -129q-99 0 -204 24t-177 62l16 201q71 -43 158 -68t168 -25q118 0 172 54q55 55 55 196v56q-108 -84 -256 -84q-179 0 -272 96 q-86 93 -86 266z" />
<glyph unicode="z" horiz-adv-x="929" d="M88 0v147l444 654h-434v192h740v-149l-443 -651h475l-14 -193h-768z" />
<glyph unicode="{" horiz-adv-x="700" d="M68 440v103l28 2q87 6 124.5 47t37.5 137q0 55 -10 223t-10 219q0 120 75.5 175t237.5 55h100v-139h-57q-117 0 -117 -105q0 -38 21.5 -185t21.5 -222q0 -107 -50.5 -176t-152.5 -82q102 -13 152.5 -82t50.5 -177q0 -75 -21.5 -222t-21.5 -185q0 -105 117 -105h57v-139 h-100q-165 0 -239 57.5t-74 172.5q0 51 10 219t10 223q0 96 -37.5 137t-124.5 47z" />
<glyph unicode="|" horiz-adv-x="495" d="M150 -512v2048h196v-2048h-196z" />
<glyph unicode="}" horiz-adv-x="700" d="M49 -279h57q117 0 117 105q0 38 -21.5 185t-21.5 222q0 108 50.5 177t152.5 82q-102 13 -152.5 82t-50.5 176q0 75 21.5 222t21.5 185q0 105 -117 105h-57v139h101q162 0 237.5 -55t75.5 -175q0 -51 -10.5 -219t-10.5 -223q0 -96 37.5 -137t124.5 -47l29 -2v-103l-29 -2 q-87 -6 -124.5 -47t-37.5 -137q0 -55 10.5 -223t10.5 -219q0 -115 -74 -172.5t-239 -57.5h-101v139z" />
<glyph unicode="~" horiz-adv-x="1095" d="M41 414q63 142 142 212t184 70q54 0 109.5 -22.5t94 -49t86.5 -49t88 -22.5q57 0 106 34t105 105l101 -84q-62 -139 -140.5 -210.5t-187.5 -71.5q-53 0 -108 22.5t-93 49t-86.5 49t-89.5 22.5q-56 0 -106 -34t-105 -103z" />
<glyph unicode="&#xa1;" horiz-adv-x="593" d="M152 -188q0 4 1 11t1 11l92 762h102l92 -762q0 -4 1 -11t1 -11q0 -63 -41 -99.5t-104 -36.5t-104 36.5t-41 99.5zM158 872q0 57 41 98.5t98 41.5t97 -41.5t40 -98.5t-40 -97t-97 -40t-98 40t-41 97z" />
<glyph unicode="&#xa2;" d="M133 492q0 220 106 357t296 159v206h133v-206q121 -12 209 -78q101 -77 133 -236l-248 -51q-29 138 -94 170v-641h4q75 0 157 26t148 70l-10 -192q-126 -80 -299 -92v-205h-133v207q-192 23 -297 154t-105 352zM412 510q0 -236 123 -305v608q-60 -29 -91.5 -109.5 t-31.5 -193.5z" />
<glyph unicode="&#xa3;" d="M84 575v142h139q-49 127 -49 225q0 171 117.5 274t306.5 103q380 0 463 -348l-258 -43q-42 174 -182 174q-74 0 -116 -42.5t-42 -107.5q0 -13 1 -25.5t4.5 -27t5.5 -24.5t8 -27t8.5 -25t10.5 -27.5t10.5 -25t12 -27.5t11.5 -26h311v-142h-258q22 -71 22 -122 q0 -82 -29.5 -137.5t-99.5 -112.5h590l-18 -203h-887v147q82 64 121 120.5t39 138.5q0 71 -43 169h-199z" />
<glyph unicode="&#xa5;" d="M-23 1296h320l248 -485q45 -89 51 -149h2q5 59 49 145l242 489h278l-387 -729h199v-147h-262v-90h262v-148h-262v-182h-287v182h-262v148h262v90h-262v147h199z" />
<glyph unicode="&#xa6;" horiz-adv-x="495" d="M150 266h196v-778h-196v778zM150 758v778h196v-778h-196z" />
<glyph unicode="&#xa7;" d="M188 371q0 102 51.5 183.5t143.5 129.5q-43 24 -75 49.5t-61 60.5t-44 80.5t-15 100.5q0 157 114 250.5t294 93.5q168 0 305 -53l-14 -183q-133 52 -266 52q-83 0 -132 -34t-49 -91q0 -36 28.5 -66.5t73.5 -54t100 -48t110 -56t100 -70t73.5 -98t28.5 -132.5 q0 -102 -50.5 -184t-141.5 -129q90 -51 141 -118.5t51 -172.5q0 -157 -113.5 -250.5t-293.5 -93.5q-166 0 -303 53l14 185q138 -54 266 -54q83 0 132 34t49 91q0 36 -28.5 65.5t-74 52t-101 46.5t-110.5 55t-100.5 70t-74 100t-28.5 136zM430 418q0 -52 39.5 -88t114.5 -72 q129 53 129 180q0 52 -39.5 88t-114.5 72q-129 -53 -129 -180z" />
<glyph unicode="&#xa8;" horiz-adv-x="628" d="M20 1253q0 51 35 86t86 35t85 -35t34 -86t-34 -84.5t-85 -33.5t-86 33.5t-35 84.5zM369 1253q0 51 33.5 86t84.5 35t86 -35t35 -86t-35 -84.5t-86 -33.5t-84.5 33.5t-33.5 84.5z" />
<glyph unicode="&#xa9;" horiz-adv-x="1546" d="M84 649q0 141 49.5 264t137.5 212.5t218.5 141.5t284.5 52q205 0 363 -89t241.5 -240.5t83.5 -340.5q0 -188 -83.5 -340t-241.5 -240.5t-363 -88.5q-154 0 -284.5 51.5t-218.5 141.5t-137.5 212.5t-49.5 263.5zM242 649q0 -248 146 -393t386 -145t386.5 145t146.5 393 t-146.5 393.5t-386.5 145.5t-386 -145.5t-146 -393.5zM473 653q0 159 79 255t228 96q106 0 172.5 -52.5t85.5 -152.5l-170 -33q-12 54 -33.5 79t-58.5 25q-60 0 -90.5 -56t-30.5 -152q0 -234 162 -234q96 0 209 76l-10 -142q-37 -28 -100.5 -46.5t-127.5 -18.5 q-161 0 -238 98t-77 258z" />
<glyph unicode="&#xaa;" horiz-adv-x="778" d="M106 897q0 98 63.5 150.5t170.5 52.5q56 0 121 -21v17q0 58 -23 84q-29 32 -100 32q-96 0 -178 -45v111q90 41 202 41q139 0 209 -64q54 -51 54 -153v-254q0 -37 28 -37q30 0 54 20l-7 -94q-48 -32 -112 -32q-39 0 -68 16.5t-39 46.5q-23 -32 -67.5 -50t-96.5 -18 q-97 0 -154 51.5t-57 145.5zM272 907q0 -47 25.5 -74.5t67.5 -27.5t71 29q25 25 25 75v84q-39 13 -84 13q-53 0 -79 -27t-26 -72z" />
<glyph unicode="&#xab;" horiz-adv-x="1071" d="M143 496q0 24 27 55l315 328l52 -152l-179 -231l179 -232l-52 -151l-315 327q-27 27 -27 56zM510 496q0 24 27 55l315 328l51 -152l-178 -231l178 -232l-51 -151l-315 327q-27 27 -27 56z" />
<glyph unicode="&#xac;" horiz-adv-x="1095" d="M180 774v191h738v-588h-191v397h-547z" />
<glyph unicode="&#xad;" horiz-adv-x="782" d="M125 395v203h534v-203h-534z" />
<glyph unicode="&#xae;" horiz-adv-x="1546" d="M84 649q0 141 49.5 264t137.5 212.5t218.5 141.5t284.5 52q205 0 363 -89t241.5 -240.5t83.5 -340.5q0 -188 -83.5 -340t-241.5 -240.5t-363 -88.5q-154 0 -284.5 51.5t-218.5 141.5t-137.5 212.5t-49.5 263.5zM242 649q0 -248 146 -393t386 -145t386.5 145t146.5 393 t-146.5 393.5t-386.5 145.5t-386 -145.5t-146 -393.5zM455 864v127h313q130 0 199 -41q98 -54 98 -180q0 -153 -133 -207l65 -108q18 -33 47 -33q34 0 64 20l-12 -120q-48 -27 -97 -27q-58 0 -90.5 24t-68.5 80l-86 140h-62v-236h-172v561h-65zM692 655h82q62 0 87.5 25.5 t25.5 81.5q0 54 -23 74q-28 28 -110 28h-62v-209z" />
<glyph unicode="&#xaf;" horiz-adv-x="628" d="M76 1212v131h479v-131h-479z" />
<glyph unicode="&#xb0;" horiz-adv-x="933" d="M125 971q0 157 97 252.5t245 95.5t246 -95.5t98 -252.5t-98 -252.5t-246 -95.5t-245 95.5t-97 252.5zM287 971q0 -93 46 -154t134 -61t135 61t47 154t-47 153t-135 60t-134 -60t-46 -153z" />
<glyph unicode="&#xb1;" horiz-adv-x="1095" d="M180 0v190h738v-190h-738zM180 563v189h273v266h194v-266h271v-189h-271v-266h-194v266h-273z" />
<glyph unicode="&#xb2;" horiz-adv-x="792" d="M129 1104q62 215 297 215q117 0 192.5 -60.5t75.5 -173.5q0 -47 -16.5 -88t-44 -71t-61 -56t-69.5 -50.5t-67.5 -48t-57 -53.5t-36.5 -63h358l-14 -145h-547v49q0 70 20 128t51.5 97t69.5 72t76.5 58.5t70 49.5t51.5 53t20 62q0 41 -23.5 64.5t-66.5 23.5 q-79 0 -109 -102z" />
<glyph unicode="&#xb3;" horiz-adv-x="792" d="M119 1112q27 103 100 155t180 52q129 0 198 -59t69 -152q0 -111 -84 -160q118 -49 118 -186q0 -119 -82 -186.5t-229 -67.5q-128 0 -250 53l11 158q122 -66 219 -66q135 0 135 109q0 52 -41 74t-123 22v127q135 6 135 105q0 37 -22 58t-60 21q-40 0 -64.5 -21t-43.5 -73z " />
<glyph unicode="&#xb4;" horiz-adv-x="628" d="M119 1153q171 209 297 209q50 0 76 -23t26 -61q0 -45 -37 -96q-50 10 -73 10q-120 0 -263 -113z" />
<glyph unicode="&#xb6;" horiz-adv-x="1046" d="M72 977q0 141 92.5 230t238.5 89h584v-153h-133v-1608h-168v1608h-129v-1608h-168v1124q-137 0 -227 91.5t-90 226.5z" />
<glyph unicode="&#xb7;" horiz-adv-x="499" d="M115 602q0 56 39.5 95.5t95.5 39.5t96.5 -40t40.5 -95t-40.5 -95t-96.5 -40t-95.5 39.5t-39.5 95.5z" />
<glyph unicode="&#xb8;" horiz-adv-x="628" d="M156 -94q0 31 34 100l48 96l75 -47l-24 -51q-13 -26 -13 -43t31 -31.5t68.5 -25.5t68.5 -39t31 -68q0 -77 -66 -122t-194 -44l-27 82q156 7 156 56q0 22 -29.5 38t-64.5 24.5t-64.5 28t-29.5 46.5z" />
<glyph unicode="&#xb9;" horiz-adv-x="792" d="M162 1180l235 139h123v-664h117v-135h-430v135h121v457l-95 -51z" />
<glyph unicode="&#xba;" horiz-adv-x="778" d="M102 1010q0 146 75 227.5t212 81.5t213 -82t76 -227q0 -146 -76 -228t-213 -82t-212 82t-75 228zM266 1010q0 -100 29 -149.5t94 -49.5t95 49.5t30 149.5t-30 148t-95 48t-94 -48t-29 -148z" />
<glyph unicode="&#xbb;" horiz-adv-x="1071" d="M168 264l178 232l-178 231l51 152l316 -328q26 -30 26 -55q0 -30 -26 -56l-316 -327zM535 264l178 232l-178 231l51 152l315 -328q27 -31 27 -55q0 -29 -27 -56l-315 -327z" />
<glyph unicode="&#xbc;" horiz-adv-x="1740" d="M150 1180l235 139h123v-664h117v-135h-430v135h120v457l-94 -51zM545 -18l430 1337h196l-430 -1337h-196zM950 242l293 565l158 -82l-223 -432h133v119h182v-119h106v-143h-106v-150h-182v150h-338z" />
<glyph unicode="&#xbd;" horiz-adv-x="1740" d="M137 1180l236 139h123v-664h116v-135h-430v135h121v457l-94 -51zM532 -18l431 1337h196l-430 -1337h-197zM1016 594q62 215 297 215q117 0 192.5 -60.5t75.5 -173.5q0 -53 -19.5 -97t-54.5 -76.5t-70.5 -58t-80.5 -57t-72 -57.5q-40 -37 -55 -84h358l-14 -145h-549v51 q0 64 15.5 117t46 93.5t58.5 66.5t70 57q100 72 121 92q47 47 47 94q0 41 -22.5 63.5t-65.5 22.5q-81 0 -110 -100z" />
<glyph unicode="&#xbe;" horiz-adv-x="1740" d="M139 1112q27 103 100.5 155t180.5 52q129 0 197.5 -59t68.5 -152q0 -111 -84 -160q119 -50 119 -186q0 -119 -82 -186.5t-229 -67.5q-128 0 -250 53l10 158q122 -66 219 -66q135 0 135 109q0 52 -41 74t-123 22v127q136 6 136 105q0 37 -22 58t-60 21q-40 0 -65.5 -21 t-43.5 -73zM592 -18l430 1337h197l-431 -1337h-196zM1008 242l292 565l158 -82l-223 -432h133v119h182v-119h107v-143h-107v-150h-182v150h-338z" />
<glyph unicode="&#xbf;" horiz-adv-x="1026" d="M115 41q0 149 79 245t236 126l43 8l25 176h125l22 -291l-82 -14q-178 -29 -178 -219q0 -81 42.5 -131t121.5 -50q131 0 178 158l236 -47q-32 -155 -146.5 -240.5t-286.5 -85.5q-188 0 -301.5 99t-113.5 266zM420 872q0 57 41 98.5t98 41.5t97 -41.5t40 -98.5t-40 -97 t-97 -40t-98 40t-41 97z" />
<glyph unicode="&#xc0;" horiz-adv-x="1269" d="M41 0l358 1096h-120v200h505l467 -1296h-295l-88 262h-467l-79 -262h-281zM395 1595q0 38 26.5 61t76.5 23q126 0 297 -209l-25 -73q-141 112 -262 112q-26 0 -76 -10q-37 51 -37 96zM459 455h344l-141 422q-34 99 -39 159h-2q-3 -52 -33 -157z" />
<glyph unicode="&#xc1;" horiz-adv-x="1269" d="M41 0l358 1096h-120v200h505l467 -1296h-295l-88 262h-467l-79 -262h-281zM391 1470q171 209 297 209q50 0 76.5 -23t26.5 -61q0 -45 -37 -96q-50 10 -74 10q-121 0 -262 -112zM459 455h344l-141 422q-34 99 -39 159h-2q-3 -52 -33 -157z" />
<glyph unicode="&#xc2;" horiz-adv-x="1269" d="M41 0l358 1096h-120v200h505l467 -1296h-295l-88 262h-467l-79 -262h-281zM330 1444l172 223q19 24 33 32.5t40 8.5h52q25 0 39.5 -8.5t33.5 -34.5l170 -221h-161l-109 143l-111 -143h-159zM459 455h344l-141 422q-34 99 -39 159h-2q-3 -52 -33 -157z" />
<glyph unicode="&#xc3;" horiz-adv-x="1269" d="M41 0l358 1096h-120v200h505l467 -1296h-295l-88 262h-467l-79 -262h-281zM340 1450q1 47 7 81.5t22 66.5t47.5 48.5t77.5 16.5q45 0 108 -37t92 -37q19 0 37 18.5t25 55.5h84q-1 -47 -7 -81.5t-22 -66.5t-47.5 -48.5t-77.5 -16.5t-109 37t-92 37q-20 0 -38 -18.5 t-25 -55.5h-82zM459 455h344l-141 422q-34 99 -39 159h-2q-3 -52 -33 -157z" />
<glyph unicode="&#xc4;" horiz-adv-x="1269" d="M41 0l358 1096h-120v200h505l467 -1296h-295l-88 262h-467l-79 -262h-281zM299 1548q0 51 35 86t86 35t85 -35t34 -86t-34 -84.5t-85 -33.5t-86 33.5t-35 84.5zM459 455h344l-141 422q-34 99 -39 159h-2q-3 -52 -33 -157zM647 1548q0 51 34 86t85 35t86 -35t35 -86 t-35 -84.5t-86 -33.5t-85 33.5t-34 84.5z" />
<glyph unicode="&#xc5;" horiz-adv-x="1269" d="M41 0l358 1096h-120v200h505l467 -1296h-295l-88 262h-467l-79 -262h-281zM428 1583q0 77 53 126.5t127 49.5t127 -49.5t53 -126.5t-53 -126.5t-127 -49.5t-127 49.5t-53 126.5zM459 455h344l-141 422q-34 99 -39 159h-2q-3 -52 -33 -157zM535 1583q0 -35 20 -57.5 t53 -22.5t53.5 23t20.5 57t-20.5 57t-53.5 23t-53 -22.5t-20 -57.5z" />
<glyph unicode="&#xc6;" horiz-adv-x="1851" d="M4 0l614 1096h-129v200h1229v-200h-555v-338h447v-197h-447v-358h602l-18 -203h-868v262h-437l-143 -262h-295zM543 455h336v643q-10 -47 -74 -166z" />
<glyph unicode="&#xc7;" horiz-adv-x="1183" d="M72 655q0 141 34 259.5t101.5 210t178 143t253.5 51.5q191 0 314 -99t151 -268l-289 -53q-22 100 -65 151.5t-121 51.5q-124 0 -189 -116.5t-65 -313.5q0 -473 334 -473q91 0 192.5 33.5t181.5 84.5l-16 -223q-72 -49 -185.5 -81.5t-232.5 -32.5h-2q-2 -6 -2 -19 q0 -17 31 -31.5t68.5 -25.5t68.5 -39t31 -68q0 -77 -66 -122t-194 -44l-27 82q156 7 156 56q0 22 -29.5 38t-65 24.5t-65 27.5t-29.5 47q0 29 25 80q-124 16 -216.5 72.5t-149 146t-84 202t-27.5 248.5z" />
<glyph unicode="&#xc8;" horiz-adv-x="1093" d="M145 0v1296h820v-200h-535v-338h434v-199h-434v-356h582l-19 -203h-848zM365 1595q0 38 26.5 61t75.5 23q126 0 297 -209l-25 -73q-141 112 -262 112q-26 0 -76 -10q-36 50 -36 96z" />
<glyph unicode="&#xc9;" horiz-adv-x="1093" d="M145 0v1296h820v-200h-535v-338h434v-199h-434v-356h582l-19 -203h-848zM371 1470q171 209 297 209q50 0 76 -23t26 -61q0 -45 -37 -96q-50 10 -74 10q-121 0 -262 -112z" />
<glyph unicode="&#xca;" horiz-adv-x="1093" d="M145 0v1296h820v-200h-535v-338h434v-199h-434v-356h582l-19 -203h-848zM293 1444l172 223q19 23 33.5 32t40.5 9h51q26 0 40.5 -9t33.5 -34l170 -221h-162l-109 143l-110 -143h-160z" />
<glyph unicode="&#xcb;" horiz-adv-x="1093" d="M145 0v1296h820v-200h-535v-338h434v-199h-434v-356h582l-19 -203h-848zM262 1548q0 51 35 86t86 35t85 -35t34 -86t-34 -84.5t-85 -33.5t-86 33.5t-35 84.5zM610 1548q0 51 34 86t85 35t86 -35t35 -86t-35 -84.5t-86 -33.5t-85 33.5t-34 84.5z" />
<glyph unicode="&#xcc;" horiz-adv-x="784" d="M117 0v158h131v977h-131v161h551v-161h-136v-977h136v-158h-551zM193 1595q0 38 26.5 61t75.5 23q126 0 297 -209l-25 -73q-141 112 -262 112q-26 0 -76 -10q-36 50 -36 96z" />
<glyph unicode="&#xcd;" horiz-adv-x="784" d="M117 0v158h131v977h-131v161h551v-161h-136v-977h136v-158h-551zM193 1470q171 209 296 209q50 0 76.5 -23t26.5 -61q0 -45 -37 -96q-50 10 -74 10q-121 0 -262 -112z" />
<glyph unicode="&#xce;" horiz-adv-x="784" d="M117 0v158h131v977h-131v161h551v-161h-136v-977h136v-158h-551zM121 1444l172 223q19 23 33.5 32t40.5 9h51q26 0 40.5 -9t33.5 -34l170 -221h-162l-109 143l-110 -143h-160z" />
<glyph unicode="&#xcf;" horiz-adv-x="784" d="M100 1548q0 51 35 86t86 35t85 -35t34 -86t-34 -84.5t-85 -33.5t-86 33.5t-35 84.5zM117 0v158h131v977h-131v161h551v-161h-136v-977h136v-158h-551zM449 1548q0 51 33.5 86t84.5 35t86 -35t35 -86t-35 -84.5t-86 -33.5t-84.5 33.5t-33.5 84.5z" />
<glyph unicode="&#xd0;" horiz-adv-x="1316" d="M-12 551v199h174v346h-125v200h512q322 0 479 -104q110 -74 163.5 -208t53.5 -341q0 -453 -319 -584q-147 -59 -369 -59h-395v551h-174zM446 201h129q155 0 238 59q71 51 100 148t29 249q0 145 -29 235.5t-94 139.5q-87 64 -270 64h-103v-346h199v-199h-199v-350z" />
<glyph unicode="&#xd1;" horiz-adv-x="1335" d="M145 0v1296h183l557 -721q51 -63 65 -110v831h240v-1296h-189l-555 721q-47 61 -61 110v-831h-240zM418 1450q1 48 7 82t21.5 66t47 48.5t77.5 16.5q45 0 108.5 -37t92.5 -37q19 0 37 18.5t25 55.5h84q-1 -47 -7 -81.5t-22 -66.5t-47.5 -48.5t-77.5 -16.5t-109 37t-92 37 q-20 0 -38 -18.5t-25 -55.5h-82z" />
<glyph unicode="&#xd2;" horiz-adv-x="1282" d="M72 649q0 203 62 352t191.5 233.5t315.5 84.5t315.5 -84.5t191.5 -233.5t62 -352t-62 -351.5t-191 -233t-316 -84.5t-316 84.5t-191 233t-62 351.5zM375 649q0 -450 266 -450t266 450q0 451 -266 451t-266 -451zM442 1595q0 38 26.5 61t76.5 23q126 0 297 -209l-25 -73 q-141 112 -262 112q-26 0 -76 -10q-37 51 -37 96z" />
<glyph unicode="&#xd3;" horiz-adv-x="1282" d="M72 649q0 203 62 352t191.5 233.5t315.5 84.5t315.5 -84.5t191.5 -233.5t62 -352t-62 -351.5t-191 -233t-316 -84.5t-316 84.5t-191 233t-62 351.5zM375 649q0 -450 266 -450t266 450q0 451 -266 451t-266 -451zM442 1470q171 209 297 209q50 0 76.5 -23t26.5 -61 q0 -45 -37 -96q-50 10 -74 10q-121 0 -262 -112z" />
<glyph unicode="&#xd4;" horiz-adv-x="1282" d="M72 649q0 203 62 352t191.5 233.5t315.5 84.5t315.5 -84.5t191.5 -233.5t62 -352t-62 -351.5t-191 -233t-316 -84.5t-316 84.5t-191 233t-62 351.5zM371 1444l172 223q19 24 33 32.5t40 8.5h52q25 0 39.5 -8.5t33.5 -34.5l170 -221h-161l-109 143l-111 -143h-159z M375 649q0 -450 266 -450t266 450q0 451 -266 451t-266 -451z" />
<glyph unicode="&#xd5;" horiz-adv-x="1282" d="M72 649q0 203 62 352t191.5 233.5t315.5 84.5t315.5 -84.5t191.5 -233.5t62 -352t-62 -351.5t-191 -233t-316 -84.5t-316 84.5t-191 233t-62 351.5zM375 649q0 -450 266 -450t266 450q0 451 -266 451t-266 -451zM391 1450q1 47 7 81.5t22 66.5t47.5 48.5t77.5 16.5 q45 0 108 -37t92 -37q19 0 37 18.5t25 55.5h84q-1 -47 -7 -81.5t-22 -66.5t-47.5 -48.5t-77.5 -16.5t-108.5 37t-91.5 37q-20 0 -38.5 -18.5t-25.5 -55.5h-82z" />
<glyph unicode="&#xd6;" horiz-adv-x="1282" d="M72 649q0 203 62 352t191.5 233.5t315.5 84.5t315.5 -84.5t191.5 -233.5t62 -352t-62 -351.5t-191 -233t-316 -84.5t-316 84.5t-191 233t-62 351.5zM348 1548q0 51 35 86t86 35t85 -35t34 -86t-34 -84.5t-85 -33.5t-86 33.5t-35 84.5zM375 649q0 -450 266 -450t266 450 q0 451 -266 451t-266 -451zM696 1548q0 51 34 86t85 35t86 -35t35 -86t-35 -84.5t-86 -33.5t-85 33.5t-34 84.5z" />
<glyph unicode="&#xd7;" horiz-adv-x="1095" d="M221 465l191 190l-187 189l137 139l189 -188l190 190l136 -133l-191 -193l186 -186l-137 -139l-188 188l-193 -192z" />
<glyph unicode="&#xd8;" horiz-adv-x="1282" d="M72 649q0 203 62 352t191.5 233.5t315.5 84.5q121 0 217 -35l72 154h160l-103 -224q111 -84 167 -228.5t56 -336.5q0 -203 -62 -351.5t-191 -233t-316 -84.5q-113 0 -205 30l-69 -151h-162l100 217q-116 84 -174.5 230.5t-58.5 342.5zM375 649q0 -196 51 -307l334 727 q-54 31 -119 31q-266 0 -266 -451zM532 223q50 -24 109 -24q266 0 266 450q0 181 -45 293z" />
<glyph unicode="&#xd9;" horiz-adv-x="1300" d="M143 469v827h287v-815q0 -149 47 -209q55 -71 176 -71q117 0 174 67q52 64 52 211v817h278v-817q0 -224 -92 -340q-125 -159 -418 -159q-274 0 -399 137q-58 64 -81.5 145t-23.5 207zM451 1595q0 38 26.5 61t75.5 23q126 0 297 -209l-25 -73q-141 112 -262 112 q-26 0 -76 -10q-36 50 -36 96z" />
<glyph unicode="&#xda;" horiz-adv-x="1300" d="M143 469v827h287v-815q0 -149 47 -209q55 -71 176 -71q117 0 174 67q52 64 52 211v817h278v-817q0 -224 -92 -340q-125 -159 -418 -159q-274 0 -399 137q-58 64 -81.5 145t-23.5 207zM459 1470q171 209 297 209q50 0 76 -23t26 -61q0 -45 -37 -96q-50 10 -73 10 q-122 0 -263 -112z" />
<glyph unicode="&#xdb;" horiz-adv-x="1300" d="M143 469v827h287v-815q0 -149 47 -209q55 -71 176 -71q117 0 174 67q52 64 52 211v817h278v-817q0 -224 -92 -340q-125 -159 -418 -159q-274 0 -399 137q-58 64 -81.5 145t-23.5 207zM379 1444l172 223q19 23 33.5 32t40.5 9h51q26 0 40.5 -9t33.5 -34l170 -221h-162 l-109 143l-110 -143h-160z" />
<glyph unicode="&#xdc;" horiz-adv-x="1300" d="M143 469v827h287v-815q0 -149 47 -209q55 -71 176 -71q117 0 174 67q52 64 52 211v817h278v-817q0 -224 -92 -340q-125 -159 -418 -159q-274 0 -399 137q-58 64 -81.5 145t-23.5 207zM362 1548q0 51 35 86t86 35t85 -35t34 -86t-34 -84.5t-85 -33.5t-86 33.5t-35 84.5z M711 1548q0 51 33.5 86t84.5 35t86 -35t35 -86t-35 -84.5t-86 -33.5t-84.5 33.5t-33.5 84.5z" />
<glyph unicode="&#xdd;" horiz-adv-x="1202" d="M6 1296h318l247 -485q47 -93 52 -143h2q5 57 47 139l239 489h279l-451 -850v-446h-284v451zM422 1470q171 209 297 209q49 0 75.5 -23t26.5 -61q0 -45 -37 -96q-50 10 -73 10q-121 0 -262 -112z" />
<glyph unicode="&#xde;" horiz-adv-x="1200" d="M145 0v1296h287v-223h158q253 0 385 -80q170 -103 170 -344q0 -260 -191 -362q-129 -70 -354 -70h-168v-217h-287zM432 399h115q80 0 131.5 9.5t93 35t60 75t18.5 126.5q0 145 -86 199q-65 41 -205 41h-127v-486z" />
<glyph unicode="&#xdf;" horiz-adv-x="1349" d="M18 801v192h154v11q0 139 67.5 235.5t179.5 141t259 44.5q214 0 344.5 -108.5t130.5 -319.5q0 -86 -23 -180q-72 14 -176 14q-88 0 -131 -27t-43 -75q0 -28 21.5 -49.5t56.5 -34t80 -27t92 -28t92 -38.5t80 -56t56.5 -83t21.5 -118q0 -150 -106 -231.5t-291 -81.5 q-200 0 -348 65v209q71 -41 160 -64.5t165 -23.5q81 0 123.5 26.5t42.5 73.5q0 33 -21.5 56.5t-56.5 37t-80 27.5t-92 26t-92 35.5t-80 53t-56.5 80t-21.5 116.5q0 132 100 212.5t267 80.5q4 12 4 35q0 100 -55 155.5t-162 55.5q-129 0 -188 -80q-48 -67 -48 -211v-948h-272 v801h-154z" />
<glyph unicode="&#xe0;" horiz-adv-x="1110" d="M86 311q0 162 105 249t284 87q107 0 201 -33v27q0 97 -39 141q-48 54 -166 54q-152 0 -297 -74v184q144 66 340 66q235 0 346 -105q88 -82 88 -254v-424q0 -32 11 -46.5t36 -14.5q18 0 42.5 8.5t37.5 18.5l-10 -156q-72 -51 -182 -51q-65 0 -112 26.5t-64 77.5 q-39 -52 -111.5 -81t-157.5 -29q-161 0 -256.5 86t-95.5 243zM338 1278q0 38 26 61t76 23q126 0 297 -209l-24 -74q-143 113 -262 113q-26 0 -76 -10q-37 51 -37 96zM360 324q0 -80 42 -123t114 -43q75 0 119 47q41 44 41 125v137q-65 25 -141 25q-86 0 -130.5 -46.5 t-44.5 -121.5z" />
<glyph unicode="&#xe1;" horiz-adv-x="1110" d="M86 311q0 162 105 249t284 87q107 0 201 -33v27q0 97 -39 141q-48 54 -166 54q-152 0 -297 -74v184q144 66 340 66q235 0 346 -105q88 -82 88 -254v-424q0 -32 11 -46.5t36 -14.5q18 0 42.5 8.5t37.5 18.5l-10 -156q-72 -51 -182 -51q-65 0 -112 26.5t-64 77.5 q-39 -52 -111.5 -81t-157.5 -29q-161 0 -256.5 86t-95.5 243zM324 1153q171 209 297 209q49 0 75.5 -23t26.5 -61q0 -45 -37 -96q-50 10 -74 10q-119 0 -262 -113zM360 324q0 -80 42 -123t114 -43q75 0 119 47q41 44 41 125v137q-65 25 -141 25q-86 0 -130.5 -46.5 t-44.5 -121.5z" />
<glyph unicode="&#xe2;" horiz-adv-x="1110" d="M86 311q0 162 105 249t284 87q107 0 201 -33v27q0 97 -39 141q-48 54 -166 54q-152 0 -297 -74v184q144 66 340 66q235 0 346 -105q88 -82 88 -254v-424q0 -32 11 -46.5t36 -14.5q18 0 42.5 8.5t37.5 18.5l-10 -156q-72 -51 -182 -51q-65 0 -112 26.5t-64 77.5 q-39 -52 -111.5 -81t-157.5 -29q-161 0 -256.5 86t-95.5 243zM281 1104l172 223q19 24 33 32.5t40 8.5h52q25 0 39.5 -8.5t33.5 -34.5l170 -221h-162l-108 143l-111 -143h-159zM360 324q0 -80 42 -123t114 -43q75 0 119 47q41 44 41 125v137q-65 25 -141 25 q-86 0 -130.5 -46.5t-44.5 -121.5z" />
<glyph unicode="&#xe3;" horiz-adv-x="1110" d="M86 311q0 162 105 249t284 87q107 0 201 -33v27q0 97 -39 141q-48 54 -166 54q-152 0 -297 -74v184q144 66 340 66q235 0 346 -105q88 -82 88 -254v-424q0 -32 11 -46.5t36 -14.5q18 0 42.5 8.5t37.5 18.5l-10 -156q-72 -51 -182 -51q-65 0 -112 26.5t-64 77.5 q-39 -52 -111.5 -81t-157.5 -29q-161 0 -256.5 86t-95.5 243zM295 1133q1 47 7 81.5t22 66.5t47.5 48.5t77.5 16.5q45 0 108 -37t92 -37q19 0 37 18.5t25 55.5h84q-1 -47 -7 -81.5t-22 -66.5t-47.5 -48.5t-77.5 -16.5t-109 36.5t-92 36.5q-20 0 -38 -18t-25 -55h-82z M360 324q0 -80 42 -123t114 -43q75 0 119 47q41 44 41 125v137q-65 25 -141 25q-86 0 -130.5 -46.5t-44.5 -121.5z" />
<glyph unicode="&#xe4;" horiz-adv-x="1110" d="M86 311q0 162 105 249t284 87q107 0 201 -33v27q0 97 -39 141q-48 54 -166 54q-152 0 -297 -74v184q144 66 340 66q235 0 346 -105q88 -82 88 -254v-424q0 -32 11 -46.5t36 -14.5q18 0 42.5 8.5t37.5 18.5l-10 -156q-72 -51 -182 -51q-65 0 -112 26.5t-64 77.5 q-39 -52 -111.5 -81t-157.5 -29q-161 0 -256.5 86t-95.5 243zM248 1253q0 51 35 86t86 35t84.5 -35t33.5 -86t-33.5 -84.5t-84.5 -33.5t-86 33.5t-35 84.5zM360 324q0 -80 42 -123t114 -43q75 0 119 47q41 44 41 125v137q-65 25 -141 25q-86 0 -130.5 -46.5t-44.5 -121.5z M596 1253q0 51 34 86t85 35t86 -35t35 -86t-35 -84.5t-86 -33.5t-85 33.5t-34 84.5z" />
<glyph unicode="&#xe5;" horiz-adv-x="1110" d="M86 311q0 162 105 249t284 87q107 0 201 -33v27q0 97 -39 141q-48 54 -166 54q-152 0 -297 -74v184q144 66 340 66q235 0 346 -105q88 -82 88 -254v-424q0 -32 11 -46.5t36 -14.5q18 0 42.5 8.5t37.5 18.5l-10 -156q-72 -51 -182 -51q-65 0 -112 26.5t-64 77.5 q-39 -52 -111.5 -81t-157.5 -29q-161 0 -256.5 86t-95.5 243zM360 324q0 -80 42 -123t114 -43q75 0 119 47q41 44 41 125v137q-65 25 -141 25q-86 0 -130.5 -46.5t-44.5 -121.5zM360 1276q0 77 53.5 126.5t127.5 49.5t127 -49.5t53 -126.5t-53 -126.5t-127 -49.5 t-127.5 49.5t-53.5 126.5zM467 1276q0 -34 20.5 -57t53.5 -23t53 22.5t20 57.5t-20 57.5t-53 22.5t-53.5 -23t-20.5 -57z" />
<glyph unicode="&#xe6;" horiz-adv-x="1669" d="M88 311q0 162 105 249t284 87q107 0 201 -33v27q0 97 -39 141q-48 54 -166 54q-152 0 -297 -74v184q144 66 340 66q222 0 336 -99q127 99 293 99q203 0 325.5 -125t122.5 -332q0 -81 -27 -114t-96 -33h-514q13 -118 83 -178t186 -60q85 0 172 27.5t153 72.5l-10 -186 q-68 -49 -167.5 -75.5t-203.5 -26.5q-246 0 -372 145q-51 -66 -148 -105.5t-209 -39.5q-161 0 -256.5 86t-95.5 243zM362 324q0 -80 42 -123t114 -43q75 0 119 47q41 44 41 125v137q-68 25 -141 25q-86 0 -130.5 -46.5t-44.5 -121.5zM952 563h359q20 0 20 21 q0 116 -49 179.5t-137 63.5q-83 0 -135 -64t-58 -200z" />
<glyph unicode="&#xe7;" horiz-adv-x="995" d="M61 492q0 240 124 380t343 140q164 0 275 -82q101 -77 133 -236l-248 -51q-20 94 -55 139t-103 45q-95 0 -143.5 -86.5t-48.5 -230.5q0 -170 63.5 -254t196.5 -84q75 0 157 26t148 70l-10 -192q-64 -42 -158 -68t-190 -26h-15q-2 -6 -2 -21q0 -17 31 -31.5t68.5 -25.5 t68.5 -39t31 -68q0 -77 -66 -122t-194 -44l-27 82q156 7 156 56q0 22 -29.5 38t-64.5 24.5t-64.5 28t-29.5 46.5q0 28 26 84q-179 29 -276 158.5t-97 343.5z" />
<glyph unicode="&#xe8;" horiz-adv-x="1056" d="M61 492q0 243 128.5 381.5t340.5 138.5q203 0 327 -125t124 -332q0 -80 -27.5 -113.5t-95.5 -33.5h-516q13 -118 82.5 -178t185.5 -60q85 0 172.5 27.5t153.5 72.5l-10 -186q-68 -49 -167.5 -75.5t-203.5 -26.5q-235 0 -364.5 137.5t-129.5 372.5zM338 563h362 q19 0 19 21q0 116 -50 179.5t-139 63.5q-82 0 -134 -66t-58 -198zM346 1278q0 38 26.5 61t76.5 23q125 0 296 -209l-24 -74q-143 113 -262 113q-26 0 -76 -10q-37 51 -37 96z" />
<glyph unicode="&#xe9;" horiz-adv-x="1056" d="M61 492q0 243 128.5 381.5t340.5 138.5q203 0 327 -125t124 -332q0 -80 -27.5 -113.5t-95.5 -33.5h-516q13 -118 82.5 -178t185.5 -60q85 0 172.5 27.5t153.5 72.5l-10 -186q-68 -49 -167.5 -75.5t-203.5 -26.5q-235 0 -364.5 137.5t-129.5 372.5zM317 1153 q171 209 297 209q50 0 76.5 -23t26.5 -61q0 -45 -37 -96q-50 10 -74 10q-119 0 -262 -113zM338 563h362q19 0 19 21q0 116 -50 179.5t-139 63.5q-82 0 -134 -66t-58 -198z" />
<glyph unicode="&#xea;" horiz-adv-x="1056" d="M61 492q0 243 128.5 381.5t340.5 138.5q203 0 327 -125t124 -332q0 -80 -27.5 -113.5t-95.5 -33.5h-516q13 -118 82.5 -178t185.5 -60q85 0 172.5 27.5t153.5 72.5l-10 -186q-68 -49 -167.5 -75.5t-203.5 -26.5q-235 0 -364.5 137.5t-129.5 372.5zM264 1104l172 223 q19 23 33.5 32t40.5 9h51q26 0 40.5 -9t33.5 -34l170 -221h-162l-108 143l-111 -143h-160zM338 563h362q19 0 19 21q0 116 -50 179.5t-139 63.5q-82 0 -134 -66t-58 -198z" />
<glyph unicode="&#xeb;" horiz-adv-x="1056" d="M61 492q0 243 128.5 381.5t340.5 138.5q203 0 327 -125t124 -332q0 -80 -27.5 -113.5t-95.5 -33.5h-516q13 -118 82.5 -178t185.5 -60q85 0 172.5 27.5t153.5 72.5l-10 -186q-68 -49 -167.5 -75.5t-203.5 -26.5q-235 0 -364.5 137.5t-129.5 372.5zM244 1253q0 51 35 86 t86 35t84.5 -35t33.5 -86t-33.5 -84.5t-84.5 -33.5t-86 33.5t-35 84.5zM338 563h362q19 0 19 21q0 116 -50 179.5t-139 63.5q-82 0 -134 -66t-58 -198zM592 1253q0 51 34 86t85 35t85.5 -35t34.5 -86t-34.5 -84.5t-85.5 -33.5t-85 33.5t-34 84.5z" />
<glyph unicode="&#xec;" horiz-adv-x="628" d="M49 801v192h391v-764q0 -61 49 -61q18 0 41.5 8.5t36.5 18.5l-8 -156q-74 -51 -180 -51q-123 0 -174 69q-37 51 -37 160v584h-119zM80 1278q0 38 26 61t76 23q126 0 297 -209l-24 -74q-143 113 -262 113q-26 0 -76 -10q-37 51 -37 96z" />
<glyph unicode="&#xed;" horiz-adv-x="628" d="M49 801v192h391v-764q0 -61 49 -61q18 0 41.5 8.5t36.5 18.5l-8 -156q-74 -51 -180 -51q-123 0 -174 69q-37 51 -37 160v584h-119zM80 1153q171 209 297 209q49 0 75.5 -23t26.5 -61q0 -45 -37 -96q-50 10 -73 10q-120 0 -263 -113z" />
<glyph unicode="&#xee;" horiz-adv-x="628" d="M18 1104l172 223q19 23 33.5 32t40.5 9h51q26 0 40.5 -9t33.5 -34l170 -221h-162l-108 143l-111 -143h-160zM49 801v192h391v-764q0 -61 49 -61q18 0 41.5 8.5t36.5 18.5l-8 -156q-74 -51 -180 -51q-123 0 -174 69q-37 51 -37 160v584h-119z" />
<glyph unicode="&#xef;" horiz-adv-x="628" d="M6 1253q0 51 35 86t86 35t85 -35t34 -86t-34 -84.5t-85 -33.5t-86 33.5t-35 84.5zM49 801v192h391v-764q0 -61 49 -61q18 0 41.5 8.5t36.5 18.5l-8 -156q-74 -51 -180 -51q-123 0 -174 69q-37 51 -37 160v584h-119zM354 1253q0 51 34 86t85 35t86 -35t35 -86t-35 -84.5 t-86 -33.5t-85 33.5t-34 84.5z" />
<glyph unicode="&#xf0;" horiz-adv-x="1146" d="M100 449q0 209 114.5 320.5t307.5 111.5q64 0 132 -16.5t112 -39.5q-21 174 -115 258l-47 -108l-102 41l53 125q-67 23 -186 26l24 152q122 0 228 -25l55 129l104 -41l-53 -127q166 -75 251 -245t85 -428q0 -132 -29.5 -240.5t-88.5 -190t-156 -126.5t-224 -45 q-148 0 -255 62.5t-158.5 167t-51.5 239.5zM369 446q0 -127 54.5 -198.5t145.5 -71.5q111 0 163 88.5t52 270.5q0 58 -4 120q-91 54 -190 54q-107 0 -164 -69t-57 -194z" />
<glyph unicode="&#xf1;" horiz-adv-x="1165" d="M37 801v192h280l50 -127q110 146 317 146q178 0 272 -97q86 -93 86 -266v-649h-272v606q0 101 -33 146q-42 55 -129 55q-89 0 -139 -64q-41 -53 -41 -174v-569h-272v801h-119zM340 1133q1 47 7 81.5t22 66.5t47.5 48.5t77.5 16.5q45 0 108 -37t92 -37q19 0 37 18.5 t25 55.5h84q-1 -47 -7 -81.5t-22 -66.5t-47.5 -48.5t-77.5 -16.5t-109 36.5t-92 36.5q-20 0 -38 -18t-25 -55h-82z" />
<glyph unicode="&#xf2;" horiz-adv-x="1089" d="M61 496q0 243 126 379.5t358 136.5t357.5 -136.5t125.5 -379.5t-125.5 -378.5t-357.5 -135.5t-358 135.5t-126 378.5zM338 496q0 -174 53.5 -251t153.5 -77t153.5 77t53.5 251t-53.5 251.5t-153.5 77.5t-153.5 -77.5t-53.5 -251.5zM362 1278q0 38 26.5 61t76.5 23 q126 0 297 -209l-25 -74q-143 113 -262 113q-26 0 -76 -10q-37 51 -37 96z" />
<glyph unicode="&#xf3;" horiz-adv-x="1089" d="M61 496q0 243 126 379.5t358 136.5t357.5 -136.5t125.5 -379.5t-125.5 -378.5t-357.5 -135.5t-358 135.5t-126 378.5zM324 1153q171 209 297 209q49 0 75.5 -23t26.5 -61q0 -45 -37 -96q-50 10 -74 10q-119 0 -262 -113zM338 496q0 -174 53.5 -251t153.5 -77t153.5 77 t53.5 251t-53.5 251.5t-153.5 77.5t-153.5 -77.5t-53.5 -251.5z" />
<glyph unicode="&#xf4;" horiz-adv-x="1089" d="M61 496q0 243 126 379.5t358 136.5t357.5 -136.5t125.5 -379.5t-125.5 -378.5t-357.5 -135.5t-358 135.5t-126 378.5zM274 1104l172 223q19 23 33.5 32t40.5 9h51q26 0 40.5 -9t33.5 -34l170 -221h-162l-108 143l-111 -143h-160zM338 496q0 -174 53.5 -251t153.5 -77 t153.5 77t53.5 251t-53.5 251.5t-153.5 77.5t-153.5 -77.5t-53.5 -251.5z" />
<glyph unicode="&#xf5;" horiz-adv-x="1089" d="M61 496q0 243 126 379.5t358 136.5t357.5 -136.5t125.5 -379.5t-125.5 -378.5t-357.5 -135.5t-358 135.5t-126 378.5zM295 1133q1 47 7 81.5t22 66.5t47.5 48.5t77.5 16.5q45 0 108 -37t92 -37q19 0 37 18.5t25 55.5h84q-1 -47 -7 -81.5t-22 -66.5t-47.5 -48.5 t-77.5 -16.5t-109 36.5t-92 36.5q-20 0 -38 -18t-25 -55h-82zM338 496q0 -174 53.5 -251t153.5 -77t153.5 77t53.5 251t-53.5 251.5t-153.5 77.5t-153.5 -77.5t-53.5 -251.5z" />
<glyph unicode="&#xf6;" horiz-adv-x="1089" d="M61 496q0 243 126 379.5t358 136.5t357.5 -136.5t125.5 -379.5t-125.5 -378.5t-357.5 -135.5t-358 135.5t-126 378.5zM252 1253q0 51 35 86t86 35t85 -35t34 -86t-34 -84.5t-85 -33.5t-86 33.5t-35 84.5zM338 496q0 -174 53.5 -251t153.5 -77t153.5 77t53.5 251 t-53.5 251.5t-153.5 77.5t-153.5 -77.5t-53.5 -251.5zM600 1253q0 51 34 86t85 35t86 -35t35 -86t-35 -84.5t-86 -33.5t-85 33.5t-34 84.5z" />
<glyph unicode="&#xf7;" horiz-adv-x="1095" d="M180 563v189h738v-189h-738zM424 365q0 54 38.5 91.5t92.5 37.5t92.5 -37.5t38.5 -91.5t-38.5 -93t-92.5 -39t-92.5 39t-38.5 93zM424 950q0 54 38.5 91.5t92.5 37.5t92.5 -37.5t38.5 -91.5t-38.5 -91.5t-92.5 -37.5t-92.5 37.5t-38.5 91.5z" />
<glyph unicode="&#xf8;" horiz-adv-x="1093" d="M61 498q0 243 127 378.5t359 135.5q81 0 155 -19l60 131h137l-82 -178q105 -62 160 -176t55 -272q0 -243 -126.5 -379.5t-358.5 -136.5q-80 0 -158 20l-65 -143h-138l86 190q-103 63 -157 178t-54 271zM340 498q0 -144 37 -219l244 532q-35 12 -74 12 q-102 0 -154.5 -77.5t-52.5 -247.5zM471 182q35 -12 76 -12q207 0 207 328q0 143 -39 223z" />
<glyph unicode="&#xf9;" horiz-adv-x="1175" d="M123 344v649h272v-606q0 -100 33 -145q43 -56 129 -56q89 0 139 64q41 53 41 174v569h273v-764q0 -61 49 -61q18 0 41.5 8.5t36.5 18.5l-11 -154q-77 -53 -182 -53q-62 0 -109.5 26t-66.5 76q-105 -108 -287 -108q-179 0 -272 96q-86 93 -86 266zM375 1278q0 38 26.5 61 t75.5 23q126 0 297 -209l-24 -74q-143 113 -263 113q-25 0 -75 -10q-37 51 -37 96z" />
<glyph unicode="&#xfa;" horiz-adv-x="1175" d="M123 344v649h272v-606q0 -100 33 -145q43 -56 129 -56q89 0 139 64q41 53 41 174v569h273v-764q0 -61 49 -61q18 0 41.5 8.5t36.5 18.5l-11 -154q-77 -53 -182 -53q-62 0 -109.5 26t-66.5 76q-105 -108 -287 -108q-179 0 -272 96q-86 93 -86 266zM375 1153 q171 209 297 209q50 0 76 -23t26 -61q0 -45 -37 -96q-50 10 -73 10q-120 0 -263 -113z" />
<glyph unicode="&#xfb;" horiz-adv-x="1175" d="M123 344v649h272v-606q0 -100 33 -145q43 -56 129 -56q89 0 139 64q41 53 41 174v569h273v-764q0 -61 49 -61q18 0 41.5 8.5t36.5 18.5l-11 -154q-77 -53 -182 -53q-62 0 -109.5 26t-66.5 76q-105 -108 -287 -108q-179 0 -272 96q-86 93 -86 266zM301 1104l172 223 q19 23 33.5 32t40.5 9h51q26 0 40.5 -9t33.5 -34l170 -221h-162l-109 143l-110 -143h-160z" />
<glyph unicode="&#xfc;" horiz-adv-x="1175" d="M123 344v649h272v-606q0 -100 33 -145q43 -56 129 -56q89 0 139 64q41 53 41 174v569h273v-764q0 -61 49 -61q18 0 41.5 8.5t36.5 18.5l-11 -154q-77 -53 -182 -53q-62 0 -109.5 26t-66.5 76q-105 -108 -287 -108q-179 0 -272 96q-86 93 -86 266zM274 1253q0 51 35 86 t86 35t85 -35t34 -86t-34 -84.5t-85 -33.5t-86 33.5t-35 84.5zM623 1253q0 51 33.5 86t84.5 35t86 -35t35 -86t-35 -84.5t-86 -33.5t-84.5 33.5t-33.5 84.5z" />
<glyph unicode="&#xfd;" horiz-adv-x="1140" d="M123 344v649h272v-606q0 -100 33 -145q43 -56 129 -56q89 0 139 64q41 53 41 174v569h273v-956q0 -127 -22 -205t-73 -137q-111 -129 -366 -129q-99 0 -204 24t-177 62l16 201q71 -43 158 -68t168 -25q118 0 172 54q55 55 55 196v56q-108 -84 -256 -84q-179 0 -272 96 q-86 93 -86 266zM375 1153q171 209 297 209q50 0 76 -23t26 -61q0 -45 -37 -96q-50 10 -73 10q-120 0 -263 -113z" />
<glyph unicode="&#xfe;" horiz-adv-x="1128" d="M141 -408v1809h273v-481q98 92 250 92q203 0 303 -136.5t100 -377.5q0 -240 -100.5 -378t-302.5 -138q-150 0 -250 94v-484h-273zM414 422q0 -120 39 -172q47 -68 141 -68q199 0 199 316q0 313 -199 313q-94 0 -141 -68q-39 -52 -39 -170v-151z" />
<glyph unicode="&#xff;" horiz-adv-x="1140" d="M123 344v649h272v-606q0 -100 33 -145q43 -56 129 -56q89 0 139 64q41 53 41 174v569h273v-956q0 -127 -22 -205t-73 -137q-111 -129 -366 -129q-99 0 -204 24t-177 62l16 201q71 -43 158 -68t168 -25q118 0 172 54q55 55 55 196v56q-108 -84 -256 -84q-179 0 -272 96 q-86 93 -86 266zM272 1253q0 51 35 86t86 35t85 -35t34 -86t-34 -84.5t-85 -33.5t-86 33.5t-35 84.5zM621 1253q0 51 33.5 86t84.5 35t86 -35t35 -86t-35 -84.5t-86 -33.5t-84.5 33.5t-33.5 84.5z" />
<glyph unicode="&#x152;" horiz-adv-x="1853" d="M78 649q0 310 151.5 490t429.5 180q59 0 183 -11.5t221 -11.5h657v-200h-555v-338h447v-197h-447v-358h602l-18 -203h-676q-80 0 -210 -10t-204 -10q-278 0 -429.5 179.5t-151.5 489.5zM379 649q0 -450 280 -450q140 0 187 47q35 35 35 116v576q0 83 -52 123 q-56 39 -170 39q-280 0 -280 -451z" />
<glyph unicode="&#x153;" horiz-adv-x="1746" d="M61 496q0 243 126 379.5t358 136.5q221 0 348 -127q127 127 328 127q203 0 325.5 -125t122.5 -332q0 -81 -27 -114t-96 -33h-514q13 -118 82.5 -178t185.5 -60q85 0 172.5 27.5t153.5 72.5l-10 -186q-68 -49 -167.5 -75.5t-203.5 -26.5q-219 0 -352 127 q-127 -127 -348 -127q-232 0 -358 135.5t-126 378.5zM338 496q0 -174 53.5 -251t153.5 -77t153.5 77t53.5 251t-53.5 251.5t-153.5 77.5t-153.5 -77.5t-53.5 -251.5zM1028 563h358q21 0 21 21q0 116 -49 179.5t-137 63.5q-83 0 -135 -64t-58 -200z" />
<glyph unicode="&#x178;" horiz-adv-x="1202" d="M6 1296h318l247 -485q47 -93 52 -143h2q5 57 47 139l239 489h279l-451 -850v-446h-284v451zM317 1548q0 51 35 86t86 35t85 -35t34 -86t-34 -84.5t-85 -33.5t-86 33.5t-35 84.5zM666 1548q0 51 33.5 86t84.5 35t86 -35t35 -86t-35 -84.5t-86 -33.5t-84.5 33.5t-33.5 84.5 z" />
<glyph unicode="&#x2c6;" horiz-adv-x="628" d="M45 1104l172 223q19 23 33.5 32t40.5 9h51q26 0 40.5 -9t33.5 -34l170 -221h-162l-109 143l-110 -143h-160z" />
<glyph unicode="&#x2dc;" horiz-adv-x="628" d="M66 1133q1 48 7 82t21.5 66t47 48.5t77.5 16.5q45 0 108.5 -37t92.5 -37q19 0 36.5 18.5t24.5 55.5h84q-1 -48 -7 -82t-21.5 -66t-47 -48.5t-77.5 -16.5t-109 36.5t-92 36.5q-20 0 -38.5 -18t-25.5 -55h-81z" />
<glyph unicode="&#x2000;" horiz-adv-x="879" />
<glyph unicode="&#x2001;" horiz-adv-x="1759" />
<glyph unicode="&#x2002;" horiz-adv-x="879" />
<glyph unicode="&#x2003;" horiz-adv-x="1759" />
<glyph unicode="&#x2004;" horiz-adv-x="586" />
<glyph unicode="&#x2005;" horiz-adv-x="439" />
<glyph unicode="&#x2006;" horiz-adv-x="293" />
<glyph unicode="&#x2007;" horiz-adv-x="293" />
<glyph unicode="&#x2008;" horiz-adv-x="219" />
<glyph unicode="&#x2009;" horiz-adv-x="351" />
<glyph unicode="&#x200a;" horiz-adv-x="97" />
<glyph unicode="&#x2010;" horiz-adv-x="782" d="M125 395v203h534v-203h-534z" />
<glyph unicode="&#x2011;" horiz-adv-x="782" d="M125 395v203h534v-203h-534z" />
<glyph unicode="&#x2012;" horiz-adv-x="782" d="M125 395v203h534v-203h-534z" />
<glyph unicode="&#x2013;" horiz-adv-x="1024" d="M0 457v155h1024v-155h-1024z" />
<glyph unicode="&#x2014;" horiz-adv-x="2048" d="M0 457v155h2048v-155h-2048z" />
<glyph unicode="&#x2018;" horiz-adv-x="487" d="M92 928q0 109 71.5 222t182.5 169l72 -80q-57 -40 -99.5 -101t-50.5 -108q49 -13 80 -47t31 -84q0 -56 -38 -94.5t-99 -38.5q-69 0 -109.5 44t-40.5 118z" />
<glyph unicode="&#x2019;" horiz-adv-x="487" d="M70 846q57 40 99 101t50 108q-48 13 -79 47t-31 84q0 56 38 94.5t99 38.5q69 0 109 -44t40 -118q0 -110 -72 -223.5t-182 -167.5z" />
<glyph unicode="&#x201a;" horiz-adv-x="487" d="M70 -268q57 40 99 101t50 108q-48 13 -79 47t-31 84q0 56 38 94.5t99 38.5q69 0 109 -44t40 -118q0 -110 -72 -223.5t-182 -167.5z" />
<glyph unicode="&#x201c;" horiz-adv-x="835" d="M92 928q0 109 71.5 222t182.5 169l72 -80q-57 -40 -99.5 -101t-50.5 -108q49 -13 80 -47t31 -84q0 -56 -38 -94.5t-99 -38.5q-69 0 -109.5 44t-40.5 118zM440 928q0 109 71.5 222t182.5 169l72 -80q-57 -40 -99.5 -101t-50.5 -108q49 -13 80 -47t31 -84q0 -56 -38 -94.5 t-99 -38.5q-69 0 -109.5 44t-40.5 118z" />
<glyph unicode="&#x201d;" horiz-adv-x="835" d="M70 846q57 40 99 101t50 108q-48 13 -79 47t-31 84q0 56 38 94.5t99 38.5q69 0 109 -44t40 -118q0 -110 -72 -223.5t-182 -167.5zM418 846q57 40 99 101t50 108q-48 13 -79 47t-31 84q0 56 38 94.5t99 38.5q69 0 109 -44t40 -118q0 -110 -72 -223.5t-182 -167.5z" />
<glyph unicode="&#x201e;" horiz-adv-x="835" d="M70 -268q57 40 99 101t50 108q-48 13 -79 47t-31 84q0 56 38 94.5t99 38.5q69 0 109 -44t40 -118q0 -110 -72 -223.5t-182 -167.5zM418 -268q57 40 99 101t50 108q-48 13 -79 47t-31 84q0 56 38 94.5t99 38.5q69 0 109 -44t40 -118q0 -110 -72 -223.5t-182 -167.5z" />
<glyph unicode="&#x2022;" horiz-adv-x="741" d="M123 643q0 103 72.5 174.5t175.5 71.5t175 -71.5t72 -174.5t-72.5 -176.5t-174.5 -73.5q-103 0 -175.5 73.5t-72.5 176.5z" />
<glyph unicode="&#x2026;" horiz-adv-x="1374" d="M115 125q0 57 41 97t98 40t97 -40t40 -97t-40 -98t-97 -41t-98 41t-41 98zM549 125q0 57 40 97t97 40t98 -40t41 -97t-41 -98t-98 -41t-97 41t-40 98zM983 125q0 57 40 97t97 40t98.5 -40t41.5 -97t-41.5 -98t-98.5 -41t-97 41t-40 98z" />
<glyph unicode="&#x202f;" horiz-adv-x="351" />
<glyph unicode="&#x2039;" horiz-adv-x="704" d="M143 496q0 24 27 55l315 328l52 -152l-179 -231l179 -232l-52 -151l-315 327q-27 27 -27 56z" />
<glyph unicode="&#x203a;" horiz-adv-x="704" d="M168 264l178 232l-178 231l51 152l316 -328q26 -30 26 -55q0 -30 -26 -56l-316 -327z" />
<glyph unicode="&#x205f;" horiz-adv-x="439" />
<glyph unicode="&#x20ac;" d="M-20 438v148h131q-2 18 -2 55q0 29 2 43h-131v147h143q37 226 170 357t356 131q177 0 295.5 -97t145.5 -270l-275 -53q-9 41 -20 73t-31 63.5t-51.5 49t-73.5 17.5q-52 0 -94 -24.5t-68.5 -66t-42.5 -86t-24 -94.5h247v-147h-260v-12q0 -57 2 -86h258v-148h-233 q65 -239 291 -239q86 0 182.5 33t173.5 85l-16 -223q-76 -55 -186 -84.5t-212 -29.5q-220 0 -353 119.5t-175 338.5h-149z" />
<glyph unicode="&#x2122;" horiz-adv-x="1519" d="M66 1180v116h559v-116h-199v-545h-162v545h-198zM692 635v661h158l201 -434l188 434h147v-661h-139v366l-162 -366h-84l-170 373v-373h-139z" />
<glyph unicode="&#x25fc;" horiz-adv-x="993" d="M0 0v993h993v-993h-993z" />
</font>
</defs>
</svg>
